<svg xmlns:mydata="http://www.w3.org/2000/svg" mydata:contrastcolor="ffffff"
    mydata:template="Default" mydata:presentation="2.5" mydata:layouttype="undefined"
    mydata:specialfontid="undefined" mydata:id1="769" mydata:id2="640" mydata:companyname="WIFIX"
    mydata:companytagline="" version="1.1" xmlns="http://www.w3.org/2000/svg"
    xmlns:xlink="http://www.w3.org/1999/xlink" viewBox="0 45 550 380">
    <g fill="#326295" fill-rule="nonzero" stroke="none" stroke-width="1" stroke-linecap="butt"
        stroke-linejoin="miter" stroke-miterlimit="10" stroke-dasharray="" stroke-dashoffset="0"
        font-family="none" font-weight="none" font-size="none" text-anchor="none"
        style="mix-blend-mode: normal">
        <g
            data-paper-data="{&quot;isGlobalGroup&quot;:true,&quot;bounds&quot;:{&quot;x&quot;:124.75431377231814,&quot;y&quot;:114.99999999999999,&quot;width&quot;:300.4913724553637,&quot;height&quot;:240}}">
            <g data-paper-data="{&quot;isPrimaryText&quot;:true}">
                <path
                    d="M148.2942,271.53333h15.30838c0.03347,0 0.06267,-0.0213 0.07241,-0.05294l15.73552,-48.89992l15.73552,48.89992c0.01034,0.03164 0.03894,0.05294 0.07241,0.05294h15.30838c0.03347,0 0.06267,-0.0213 0.07241,-0.05294l23.46303,-72.91239c0.0073,-0.02312 0.00365,-0.04868 -0.01156,-0.06815c-0.01399,-0.01947 -0.03712,-0.03103 -0.06145,-0.03103h-15.30899c-0.03347,0 -0.06267,0.0213 -0.07241,0.05294l-15.73552,48.90235l-15.73491,-48.90235c-0.00122,-0.00365 -0.0073,-0.00304 -0.00913,-0.00608c-0.00183,-0.00487 0.00061,-0.01095 -0.00243,-0.01521c-0.01399,-0.01947 -0.03712,-0.03103 -0.06145,-0.03103h-15.30899c-0.02434,0 -0.04685,0.01156 -0.06145,0.03103c-0.00304,0.00426 0,0.01034 -0.00243,0.01521c-0.00183,0.00365 -0.00791,0.00243 -0.00913,0.00608l-15.73552,48.90235l-15.73491,-48.90235c-0.01034,-0.03164 -0.03894,-0.05294 -0.07241,-0.05294h-15.30899c-0.02434,0 -0.04685,0.01156 -0.06145,0.03103c-0.0146,0.01947 -0.01825,0.04503 -0.01156,0.06815l23.46303,72.91239c0.01095,0.03164 0.04016,0.05294 0.07362,0.05294z"
                    data-paper-data="{&quot;glyphName&quot;:&quot;W&quot;,&quot;glyphIndex&quot;:0,&quot;firstGlyphOfWord&quot;:true,&quot;word&quot;:1}"></path>
                <path
                    d="M243.37434,271.53151h14.577c0.04198,0 0.07606,-0.03407 0.07606,-0.07606v-72.91239c0,-0.04198 -0.03407,-0.07606 -0.07606,-0.07606h-14.577c-0.04198,0 -0.07606,0.03407 -0.07606,0.07606v72.91239c0,0.04198 0.03407,0.07606 0.07606,0.07606z"
                    data-paper-data="{&quot;glyphName&quot;:&quot;I&quot;,&quot;glyphIndex&quot;:1,&quot;word&quot;:1}"></path>
                <path
                    d="M267.34728,271.53151h14.58248c0.04198,0 0.07606,-0.03407 0.07606,-0.07606v-29.0889h32.9995c0.04198,0 0.07606,-0.03407 0.07606,-0.07606v-14.58248c0,-0.04198 -0.03407,-0.07606 -0.07606,-0.07606h-32.9995v-14.43036h47.57651c0.04198,0 0.07606,-0.03407 0.07606,-0.07606v-14.58248c0,-0.04198 -0.03407,-0.07606 -0.07606,-0.07606h-62.23504c-0.04198,0 -0.07606,0.03407 -0.07606,0.07606v72.91239c0,0.04198 0.03407,0.07606 0.07606,0.07606z"
                    data-paper-data="{&quot;glyphName&quot;:&quot;F&quot;,&quot;glyphIndex&quot;:2,&quot;word&quot;:1}"></path>
                <path
                    d="M338.97067,271.53151h14.577c0.04198,0 0.07606,-0.03407 0.07606,-0.07606v-72.91239c0,-0.04198 -0.03407,-0.07606 -0.07606,-0.07606h-14.577c-0.04198,0 -0.07606,0.03407 -0.07606,0.07606v72.91239c0,0.04198 0.03407,0.07606 0.07606,0.07606z"
                    data-paper-data="{&quot;glyphName&quot;:&quot;I&quot;,&quot;glyphIndex&quot;:3,&quot;word&quot;:1}"></path>
                <path
                    d="M425.23608,198.50777c-0.01339,-0.02434 -0.03894,-0.03894 -0.06632,-0.03894h-17.13377c-0.02616,0 -0.05111,0.01339 -0.0645,0.0359l-13.91256,22.49557l-13.91073,-22.49557c-0.01339,-0.02251 -0.03833,-0.0359 -0.0645,-0.0359h-17.14047c-0.02738,0 -0.05294,0.01521 -0.06632,0.03894c-0.01278,0.02434 -0.01278,0.05354 0.00183,0.07667l22.52234,36.41604l-22.52234,36.41604c-0.01399,0.02373 -0.0146,0.05294 -0.00182,0.07667c0.01339,0.02434 0.03894,0.03894 0.06632,0.03894h17.14047c0.02616,0 0.05111,-0.01339 0.0645,-0.0359l13.91073,-22.49557l13.91256,22.49557c0.01339,0.02251 0.03833,0.0359 0.0645,0.0359h17.13377c0.02738,0 0.05294,-0.01521 0.06632,-0.03894c0.01278,-0.02434 0.01278,-0.05354 -0.00183,-0.07667l-22.51869,-36.41604l22.51869,-36.41604c0.0146,-0.02312 0.01521,-0.05233 0.00182,-0.07667z"
                    data-paper-data="{&quot;glyphName&quot;:&quot;X&quot;,&quot;glyphIndex&quot;:4,&quot;lastGlyphOfWord&quot;:true,&quot;word&quot;:1}"></path>
            </g>
            <path
                d="M190.14718,150.14733c11.07126,-11.07126 23.78542,-19.64315 38.14249,-25.7157c14.86582,-6.28776 30.43593,-9.43164 46.71033,-9.43164c16.2744,0 31.84451,3.14388 46.71033,9.43164c14.35707,6.07254 27.07124,14.64444 38.14249,25.7157c11.07126,11.07126 19.64321,23.78542 25.71585,38.14249c0.19868,0.46976 0.39423,0.94023 0.58664,1.4114h-5.50717l-2.02582,-0.00018c-5.68363,-12.99845 -13.57559,-24.54756 -23.67586,-34.64734c-10.433,-10.433 -22.41256,-18.51015 -35.93867,-24.23145c-14.00197,-5.92233 -28.67123,-8.8835 -44.00778,-8.8835c-15.33655,0 -30.00581,2.96117 -44.00778,8.8835c-13.5256,5.72078 -25.50515,13.79793 -35.93867,24.23145c-10.09982,10.09982 -17.99179,21.649 -23.67589,34.64752l-7.53296,0c0.19241,-0.47117 0.38795,-0.94164 0.58664,-1.4114c6.07264,-14.35707 14.64459,-27.07124 25.71585,-38.14249zM385.56867,281.71048c-6.07264,14.35707 -14.64459,27.07124 -25.71585,38.14249c-11.07126,11.07126 -23.78542,19.64321 -38.14249,25.71585c-14.86582,6.28745 -30.43593,9.43117 -46.71033,9.43117c-16.2744,0 -31.84451,-3.14372 -46.71033,-9.43117c-14.35707,-6.07264 -27.07124,-14.64459 -38.14249,-25.71585c-11.07126,-11.07126 -19.64321,-23.78542 -25.71585,-38.14249c-0.19834,-0.46894 -0.39355,-0.93858 -0.58563,-1.40893l7.53299,0c5.68356,12.99752 13.57518,24.54587 23.67486,34.64505c10.433,10.433 22.41256,18.51008 35.93867,24.23122c14.00197,5.92259 28.67123,8.88388 44.00778,8.88388c15.33655,0 30.00581,-2.96129 44.00778,-8.88388c13.52611,-5.72114 25.50567,-13.79822 35.93867,-24.23122c10.09961,-10.09961 17.99145,-21.6485 23.67553,-34.64669l7.53299,0c-0.1923,0.47089 -0.38773,0.94108 -0.58629,1.41056z"
                data-paper-data="{&quot;isLogoContainer&quot;:true}"></path>
        </g>
    </g>
</svg>